# xmcd
#
# Track frame offsets:
#	150
#	4053
#	40304
#	56551
#	78416
#	96594
#	115011
#	135461
#	156288
#	176979
#	197040
#	214679
#	226061
#	258086
#	277720
#	296326
#	325952
#
# Disc length: 4709 seconds
#
# Revision: 1
# Processed by: cddbd v1.5.1PL0 Copyright (c) Steve Scherf et al.
# Submitted via: audiograbber 1.83.01
#
DISCID=e7126311
DTITLE=Move ON - 50 Ways to Love Your Country
DYEAR=2004
DGENRE=Speech
TTITLE0=Publisher - Intro
TTITLE1=Blades and Boyd - Intro
TTITLE2=Schurman - Intro to The Power Of Connecting
TTITLE3=Deeler - Create an Effective Online Petition
TTITLE4=Ngoc Cao - Spread the Word about Online Petitions
TTITLE5=Lynch - Sign a Petition
TTITLE6=Rosenthal - Share Informed Political Recommendations
TTITLE7=Tulipan and Linkin - Speak Out Online
TTITLE8=Sosnowki - Email the President
TTITLE9=Warren - Meet with Your Representatives
TTITLE10=Gore - Intro to Every Vote Counts
TTITLE11=Hirsh - Vote No Matter What
TTITLE12=Coney - Mobilize Underrepresented Voters
TTITLE13=Traill - Register Voters in Unlikely Places
TTITLE14=Legueri - Organize an Issue-Specific Voter Reg Drive
TTITLE15=Holmes - Get Your Office to Vote
TTITLE16=Data - Data Track
EXTD=
EXTT0=
EXTT1=
EXTT2=
EXTT3=
EXTT4=
EXTT5=
EXTT6=
EXTT7=
EXTT8=
EXTT9=
EXTT10=
EXTT11=
EXTT12=
EXTT13=
EXTT14=
EXTT15=
EXTT16=
PLAYORDER=
